Coordinates
version=1
nRows=7
nColumns=63
inDegrees=yes

Units are S.I. units (second, meters, Newtons, ...)
If the header above contains a line with 'inDegrees', this indicates whether rotational values are in degrees (yes) or radians (no).

endheader
time	pelvis_tilt	pelvis_list	pelvis_rotation	pelvis_tx	pelvis_ty	pelvis_tz	hip_flexion_r	hip_adduction_r	hip_rotation_r	knee_angle_r	knee_angle_r_beta	ankle_angle_r	subtalar_angle_r	mtp_angle_r	hip_flexion_l	hip_adduction_l	hip_rotation_l	knee_angle_l	knee_angle_l_beta	ankle_angle_l	subtalar_angle_l	mtp_angle_l	L5_S1_Flex_Ext	L5_S1_Lat_Bending	L5_S1_axial_rotation	L4_L5_Flex_Ext	L4_L5_Lat_Bending	L4_L5_axial_rotation	L3_L4_Flex_Ext	L3_L4_Lat_Bending	L3_L4_axial_rotation	L2_L3_Flex_Ext	L2_L3_Lat_Bending	L2_L3_axial_rotation	L1_L2_Flex_Ext	L1_L2_Lat_Bending	L1_L2_axial_rotation	L1_T12_Flex_Ext	L1_T12_Lat_Bending	L1_T12_axial_rotation	Abs_r3	Abs_r2	Abs_r1	Abs_t1	Abs_t2	neck_flexion	neck_bending	neck_rotation	arm_flex_r	arm_add_r	arm_rot_r	elbow_flex_r	pro_sup_r	wrist_flex_r	wrist_dev_r	arm_flex_l	arm_add_l	arm_rot_l	elbow_flex_l	pro_sup_l	wrist_flex_l	wrist_dev_l
      3.49152542	      2.38830731	     -7.53007859	    100.92696035	      0.22178345	      0.96960457	      0.51271455	     -3.80290831	      2.99297471	     -9.29431445	      6.23176415	      0.10876480	     24.32599787	     -9.54492410	      0.00000000	     -3.78732998	     -3.73940018	     -0.92945051	      3.65713651	      0.06382907	     31.49235622	     13.40753679	      0.00000000	      0.07044473	     -0.49252343	      0.19907603	      0.13082291	     -0.65505617	      0.21151829	      0.11573365	     -1.19752148	      0.21151829	      0.08051128	     -1.19752148	      0.17419153	      0.06541498	     -1.00435379	      0.16174928	      0.04025212	     -0.76291880	      0.14930703	      0.50317967	     -5.57152358	      1.10720118	      0.00000000	      0.00000000	     10.00720835	     -5.45131826	     14.40516786	     13.41458740	    -12.73227545	     13.06757369	    126.04746581	     86.75424337	     -0.67574978	     15.60105303	     -8.37580450	     -6.73481641	     -7.30186018	    132.72936521	     88.43943196	     -7.71005887	      2.26007283
      3.50847458	      2.63579601	     -7.70005161	    101.85691353	      0.22225834	      0.96879738	      0.51372040	     -3.71432943	      3.38826121	     -9.89945456	      5.94058044	      0.10368269	     24.27475942	     -9.40470451	      0.00000000	     -3.35540880	     -4.07259289	      0.61788398	      3.78491021	      0.06605915	     31.50033962	     12.87150069	      0.00000000	      0.09814996	     -0.60757504	      0.25315307	      0.18227429	     -0.80807480	      0.26897514	      0.16125057	     -1.47725794	      0.26897514	      0.11217559	     -1.47725794	      0.22150894	      0.09114205	     -1.23896701	      0.20568687	      0.05608289	     -0.94113373	      0.18986480	      0.70107536	     -6.87301033	      1.40796143	      0.00000000	      0.00000000	      9.31766105	     -4.35339142	     13.84831548	     12.63513876	    -12.86989778	     11.75749904	    127.14183308	     84.29960592	     -4.84592447	     18.05606344	     -7.42064432	     -7.50891873	     -5.93039999	    133.15600385	     88.44383708	     -9.59540898	      6.41595797
      3.52542373	      2.89078486	     -8.09345802	    102.67233711	      0.22326860	      0.96745571	      0.51446591	     -3.41465358	      3.76321710	     -9.92774814	      5.61031385	      0.09791845	     24.01493305	    -10.01869732	      0.00000000	     -2.67339634	     -4.35505991	      1.88522461	      3.97859123	      0.06943952	     31.63560820	     12.18724302	      0.00000000	      0.10469910	     -0.74321464	      0.21904333	      0.19443671	     -0.98847548	      0.23273354	      0.17201016	     -1.80705208	      0.23273354	      0.11966061	     -1.80705208	      0.19166292	      0.09722359	     -1.51556330	      0.17797271	      0.05982507	     -1.15123948	      0.16428250	      0.74785524	     -8.40739269	      1.21825331	      0.00000000	      0.00000000	     10.18180306	     -4.51787133	     12.71315441	     12.10496358	    -12.80752153	     11.37926532	    128.61894033	     80.35990873	     -9.73761401	     20.50217562	     -7.29673614	     -8.06837302	     -5.51639444	    134.30208272	     88.55305100	    -10.87399000	      9.40568540
      3.54237288	      3.06395651	     -8.80125420	    103.25207271	      0.22508387	      0.96578878	      0.51513376	     -2.80357233	      3.95625665	     -9.93000042	      5.28628906	      0.09226315	     23.82277334	    -10.35666618	      0.00000000	     -1.63608901	     -4.49521990	      2.17125295	      4.28809296	      0.07484134	     31.88497627	     12.11430107	      0.00000000	      0.09565459	     -0.90083009	      0.10994813	      0.17764014	     -1.19810402	      0.11681989	      0.15715093	     -2.19027828	      0.11681989	      0.10932363	     -2.19027828	      0.09620461	      0.08882485	     -1.83697272	      0.08933286	      0.05465703	     -1.39538581	      0.08246110	      0.68325118	    -10.19037014	      0.61149852	      0.00000000	      0.00000000	     12.60811873	     -5.51800557	     11.33354082	     11.64466233	    -12.17083155	     11.26241225	    130.07914262	     79.35341744	    -11.25685652	     21.67003885	     -7.91113372	     -8.61182391	     -6.04282256	    135.77217862	     88.69784417	    -11.18833114	      9.71323166
      3.55932203	      3.33298404	     -9.53201769	    104.40787550	      0.22617720	      0.96396351	      0.51592220	     -2.15295411	      4.27059886	     -9.97266613	      4.91410223	      0.08576726	     23.40901030	    -11.78810976	      0.00000000	     -0.37297568	     -4.71202516	      2.82947900	      4.74069311	      0.08274070	     32.30688330	     12.11112630	      0.00000000	      0.05670193	     -1.04777225	     -0.12852353	      0.10530116	     -1.39353709	     -0.13655625	      0.09315561	     -2.54755344	     -0.13655625	      0.06480464	     -2.54755344	     -0.11245809	      0.05265342	     -2.13661717	     -0.10442537	      0.03239949	     -1.62299921	     -0.09639265	      0.40501625	    -11.85260921	     -0.71480933	      0.00000000	      0.00000000	     15.19759448	     -7.60620397	      8.39448998	     11.33947669	    -11.71000549	     12.22180543	    132.25745032	     77.20243749	    -14.74903319	     24.03847754	     -8.62316745	     -9.34408454	     -6.55499908	    137.56017667	     88.86424380	    -11.55234179	     10.96241667
      3.57627119	      3.76937624	    -10.25537649	    104.56276800	      0.22828047	      0.96224690	      0.51664223	     -1.38942774	      4.62049593	     -9.67953865	      4.68922261	      0.08184237	     23.37260434	    -11.86549348	      0.00000000	      0.75087822	     -5.03358971	      2.61367623	      5.09059877	      0.08884771	     32.82042989	     11.72050964	      0.00000000	      0.02251448	     -1.15349208	     -0.22567202	      0.04181165	     -1.53414447	     -0.23977652	      0.03698905	     -2.80460065	     -0.23977652	      0.02573180	     -2.80460065	     -0.19746301	      0.02090695	     -2.35220106	     -0.18335851	      0.01286478	     -1.78675924	     -0.16925401	      0.16081871	    -13.04853315	     -1.25512005	      0.00000000	      0.00000000	     17.89048127	     -8.37666883	      7.07373086	     11.04490524	    -11.07039496	     13.39227697	    133.79835530	     77.04600368	    -14.65236452	     24.09742580	     -9.61693922	     -9.98026766	     -7.33757359	    138.91831556	     88.97800084	    -11.57427406	     10.71615047
      3.59322034	      4.18074733	    -10.85478384	    104.91349928	      0.22989397	      0.96077481	      0.51798036	     -0.60234489	      4.93147075	     -9.51541960	      4.69325801	      0.08191280	     23.51586699	    -12.12823388	      0.00000000	      1.93996229	     -5.32377846	      2.60003914	      5.68558010	      0.09923209	     33.46615734	     11.41126939	      0.00000000	     -0.00323563	     -1.24539904	     -0.42702362	     -0.00600889	     -1.65638072	     -0.45371260	     -0.00531582	     -3.02806322	     -0.45371260	     -0.00369800	     -3.02806322	     -0.37364567	     -0.00300461	     -2.53961772	     -0.34695669	     -0.00184884	     -1.92912311	     -0.32026772	     -0.02311180	    -14.08820300	     -2.37497727	      0.00000000	      0.00000000	     19.63491916	     -8.89382141	      5.74914746	     11.60555837	    -10.37272713	     15.22457497	    134.30676892	     77.39834077	    -13.91539472	     24.07844857	    -10.78447764	    -10.23871572	     -8.72492289	    139.85785337	     89.02541789	    -11.64099994	     10.21056736
